<mxfile host="app.diagrams.net" agent="Mozilla/5.0 (Windows NT 10.0; Win64; x64; rv:134.0) Gecko/20100101 Firefox/134.0" version="24.9.1">
  <diagram name="Seite-1" id="4ZeEBDD8Zglf_izj69cS">
    <mxGraphModel dx="819" dy="1579" grid="1" gridSize="10" guides="1" tooltips="1" connect="1" arrows="1" fold="1" page="1" pageScale="1" pageWidth="827" pageHeight="1169" math="0" shadow="0">
      <root>
        <mxCell id="0" />
        <mxCell id="1" parent="0" />
        <mxCell id="EJUvLcKyhWsrcCXMegbK-39" value="Status MSG" style="swimlane;fontStyle=0;childLayout=stackLayout;horizontal=1;startSize=30;horizontalStack=0;resizeParent=1;resizeParentMax=0;resizeLast=0;collapsible=1;marginBottom=0;whiteSpace=wrap;html=1;" parent="1" vertex="1">
          <mxGeometry x="200" y="-990" width="140" height="90" as="geometry" />
        </mxCell>
        <mxCell id="EJUvLcKyhWsrcCXMegbK-40" value="Node Version" style="text;strokeColor=none;fillColor=none;align=left;verticalAlign=middle;spacingLeft=4;spacingRight=4;overflow=hidden;points=[[0,0.5],[1,0.5]];portConstraint=eastwest;rotatable=0;whiteSpace=wrap;html=1;" parent="EJUvLcKyhWsrcCXMegbK-39" vertex="1">
          <mxGeometry y="30" width="140" height="30" as="geometry" />
        </mxCell>
        <mxCell id="EJUvLcKyhWsrcCXMegbK-41" value="Public Port" style="text;strokeColor=none;fillColor=none;align=left;verticalAlign=middle;spacingLeft=4;spacingRight=4;overflow=hidden;points=[[0,0.5],[1,0.5]];portConstraint=eastwest;rotatable=0;whiteSpace=wrap;html=1;" parent="EJUvLcKyhWsrcCXMegbK-39" vertex="1">
          <mxGeometry y="60" width="140" height="30" as="geometry" />
        </mxCell>
        <mxCell id="EJUvLcKyhWsrcCXMegbK-43" value="Challenge MSG" style="swimlane;fontStyle=0;childLayout=stackLayout;horizontal=1;startSize=30;horizontalStack=0;resizeParent=1;resizeParentMax=0;resizeLast=0;collapsible=1;marginBottom=0;whiteSpace=wrap;html=1;" parent="1" vertex="1">
          <mxGeometry x="350" y="-990" width="140" height="60" as="geometry" />
        </mxCell>
        <mxCell id="EJUvLcKyhWsrcCXMegbK-44" value="Challenge (32 Bytes)" style="text;strokeColor=none;fillColor=none;align=left;verticalAlign=middle;spacingLeft=4;spacingRight=4;overflow=hidden;points=[[0,0.5],[1,0.5]];portConstraint=eastwest;rotatable=0;whiteSpace=wrap;html=1;" parent="EJUvLcKyhWsrcCXMegbK-43" vertex="1">
          <mxGeometry y="30" width="140" height="30" as="geometry" />
        </mxCell>
        <mxCell id="EJUvLcKyhWsrcCXMegbK-60" value="&lt;div&gt;Client&lt;/div&gt;&lt;div&gt;(Joining Node)&lt;/div&gt;" style="whiteSpace=wrap;html=1;imageAspect=1;deletable=1;" parent="1" vertex="1">
          <mxGeometry x="80" y="-830" width="100" height="100" as="geometry" />
        </mxCell>
        <mxCell id="EJUvLcKyhWsrcCXMegbK-68" style="edgeStyle=orthogonalEdgeStyle;rounded=0;orthogonalLoop=1;jettySize=auto;html=1;exitX=0;exitY=0.5;exitDx=0;exitDy=0;entryX=1;entryY=0.5;entryDx=0;entryDy=0;" parent="1" edge="1">
          <mxGeometry relative="1" as="geometry">
            <mxPoint x="170" y="-720" as="targetPoint" />
            <Array as="points">
              <mxPoint x="400" y="-720" />
              <mxPoint x="400" y="-720" />
            </Array>
            <mxPoint x="630" y="-720" as="sourcePoint" />
          </mxGeometry>
        </mxCell>
        <mxCell id="EJUvLcKyhWsrcCXMegbK-69" value="4. Server&#39;s Client Open Connection to the Client&#39;s Node using the Public Port" style="edgeLabel;html=1;align=center;verticalAlign=middle;resizable=0;points=[];" parent="EJUvLcKyhWsrcCXMegbK-68" vertex="1" connectable="0">
          <mxGeometry x="-0.0019" y="1" relative="1" as="geometry">
            <mxPoint y="-1" as="offset" />
          </mxGeometry>
        </mxCell>
        <mxCell id="zN5CPtgA97Gpbx7eWYGF-4" style="edgeStyle=orthogonalEdgeStyle;rounded=0;orthogonalLoop=1;jettySize=auto;html=1;exitX=0;exitY=0.25;exitDx=0;exitDy=0;entryX=1;entryY=0.25;entryDx=0;entryDy=0;" edge="1" parent="1" source="EJUvLcKyhWsrcCXMegbK-61" target="EJUvLcKyhWsrcCXMegbK-60">
          <mxGeometry relative="1" as="geometry" />
        </mxCell>
        <mxCell id="zN5CPtgA97Gpbx7eWYGF-5" value="2. Server send StatusMsg and ChallengeMsg back to Client" style="edgeLabel;html=1;align=center;verticalAlign=middle;resizable=0;points=[];" vertex="1" connectable="0" parent="zN5CPtgA97Gpbx7eWYGF-4">
          <mxGeometry x="0.066" y="2" relative="1" as="geometry">
            <mxPoint x="14" y="-2" as="offset" />
          </mxGeometry>
        </mxCell>
        <mxCell id="EJUvLcKyhWsrcCXMegbK-61" value="Server (Requested Node)" style="whiteSpace=wrap;html=1;aspect=fixed;resizable=1;" parent="1" vertex="1">
          <mxGeometry x="620" y="-830" width="100" height="100" as="geometry" />
        </mxCell>
        <mxCell id="EJUvLcKyhWsrcCXMegbK-63" style="edgeStyle=orthogonalEdgeStyle;rounded=0;orthogonalLoop=1;jettySize=auto;html=1;exitX=0.5;exitY=0;exitDx=0;exitDy=0;entryX=0.5;entryY=0;entryDx=0;entryDy=0;" parent="1" source="EJUvLcKyhWsrcCXMegbK-60" target="EJUvLcKyhWsrcCXMegbK-61" edge="1">
          <mxGeometry relative="1" as="geometry">
            <Array as="points">
              <mxPoint x="130" y="-840" />
              <mxPoint x="670" y="-840" />
            </Array>
            <mxPoint x="160" y="-835.03" as="sourcePoint" />
            <mxPoint x="660" y="-855.03" as="targetPoint" />
          </mxGeometry>
        </mxCell>
        <mxCell id="zN5CPtgA97Gpbx7eWYGF-2" value="&lt;div&gt;1. Clients send StatusMsg on connection initialisation&lt;/div&gt;" style="edgeLabel;html=1;align=center;verticalAlign=middle;resizable=0;points=[];" vertex="1" connectable="0" parent="EJUvLcKyhWsrcCXMegbK-63">
          <mxGeometry x="-0.1478" y="-1" relative="1" as="geometry">
            <mxPoint x="40" y="-1" as="offset" />
          </mxGeometry>
        </mxCell>
        <mxCell id="EJUvLcKyhWsrcCXMegbK-65" value="" style="endArrow=classic;html=1;rounded=0;exitX=0;exitY=0.75;exitDx=0;exitDy=0;entryX=1;entryY=0.75;entryDx=0;entryDy=0;" parent="1" edge="1">
          <mxGeometry width="50" height="50" relative="1" as="geometry">
            <mxPoint x="620" y="-770" as="sourcePoint" />
            <mxPoint x="180" y="-770" as="targetPoint" />
            <Array as="points">
              <mxPoint x="400" y="-770" />
            </Array>
          </mxGeometry>
        </mxCell>
        <mxCell id="EJUvLcKyhWsrcCXMegbK-66" value="3. Server send ChallengeMsg to client" style="edgeLabel;html=1;align=center;verticalAlign=middle;resizable=0;points=[];" parent="EJUvLcKyhWsrcCXMegbK-65" vertex="1" connectable="0">
          <mxGeometry x="-0.0589" y="-2" relative="1" as="geometry">
            <mxPoint as="offset" />
          </mxGeometry>
        </mxCell>
        <mxCell id="zN5CPtgA97Gpbx7eWYGF-17" value="Client - Node Part" style="rounded=0;whiteSpace=wrap;html=1;" vertex="1" parent="1">
          <mxGeometry x="90" y="-730" width="80" height="60" as="geometry" />
        </mxCell>
        <mxCell id="zN5CPtgA97Gpbx7eWYGF-18" value="Server - Client Part" style="rounded=0;whiteSpace=wrap;html=1;" vertex="1" parent="1">
          <mxGeometry x="630" y="-730" width="80" height="60" as="geometry" />
        </mxCell>
        <mxCell id="zN5CPtgA97Gpbx7eWYGF-25" value="" style="edgeStyle=orthogonalEdgeStyle;rounded=0;orthogonalLoop=1;jettySize=auto;html=1;exitX=0;exitY=0.5;exitDx=0;exitDy=0;entryX=1;entryY=0.5;entryDx=0;entryDy=0;" edge="1" parent="1">
          <mxGeometry relative="1" as="geometry">
            <mxPoint x="170" y="-700.29" as="targetPoint" />
            <Array as="points">
              <mxPoint x="400" y="-700.29" />
              <mxPoint x="400" y="-700.29" />
            </Array>
            <mxPoint x="630" y="-700.29" as="sourcePoint" />
          </mxGeometry>
        </mxCell>
        <mxCell id="zN5CPtgA97Gpbx7eWYGF-26" value="5. Server&#39;s Client send ChallengeMsg Request" style="edgeLabel;html=1;align=center;verticalAlign=middle;resizable=0;points=[];" vertex="1" connectable="0" parent="zN5CPtgA97Gpbx7eWYGF-25">
          <mxGeometry x="-0.0019" y="1" relative="1" as="geometry">
            <mxPoint x="1" y="-1" as="offset" />
          </mxGeometry>
        </mxCell>
        <mxCell id="zN5CPtgA97Gpbx7eWYGF-27" value="" style="edgeStyle=orthogonalEdgeStyle;rounded=0;orthogonalLoop=1;jettySize=auto;html=1;entryX=0.002;entryY=0.879;entryDx=0;entryDy=0;entryPerimeter=0;exitX=1.002;exitY=0.879;exitDx=0;exitDy=0;exitPerimeter=0;" edge="1" parent="1" source="zN5CPtgA97Gpbx7eWYGF-17" target="zN5CPtgA97Gpbx7eWYGF-18">
          <mxGeometry relative="1" as="geometry">
            <mxPoint x="627" y="-678" as="targetPoint" />
            <Array as="points" />
            <mxPoint x="230" y="-670" as="sourcePoint" />
          </mxGeometry>
        </mxCell>
        <mxCell id="zN5CPtgA97Gpbx7eWYGF-28" value="6. Client&#39;s Node respond with ChallengeMsg which contains the challenge" style="edgeLabel;html=1;align=center;verticalAlign=middle;resizable=0;points=[];" vertex="1" connectable="0" parent="zN5CPtgA97Gpbx7eWYGF-27">
          <mxGeometry x="-0.0019" y="1" relative="1" as="geometry">
            <mxPoint x="1" y="-1" as="offset" />
          </mxGeometry>
        </mxCell>
      </root>
    </mxGraphModel>
  </diagram>
</mxfile>
